<?xml version="1.0" standalone="no"?>
<!DOCTYPE svg PUBLIC "-//W3C//DTD SVG 20010904//EN"
 "http://www.w3.org/2000/svg">
<svg version="1.0" xmlns="http://www.w3.org/2000/svg"
 width="1800.000000pt" height="1800.000000pt" viewBox="0 0 1800.000000 1800.000000"
 preserveAspectRatio="xMidYMid meet">
<metadata>
Created by potrace 1.14, written by Peter Selinger 2001-2017
</metadata>
<g transform="translate(0.000000,1800.000000) scale(0.100000,-0.100000)"
fill="#000000" stroke="none">
<path d="M8515 17989 c-1878 -105 -3645 -775 -5110 -1937 -517 -411 -1046
-940 -1457 -1457 -1500 -1891 -2176 -4296 -1882 -6695 203 -1649 849 -3193
1882 -4495 411 -517 940 -1046 1457 -1457 1891 -1500 4296 -2176 6695 -1882
1649 203 3193 849 4495 1882 517 411 1046 940 1457 1457 1268 1598 1948 3551
1948 5595 0 2044 -680 3997 -1948 5595 -411 517 -940 1046 -1457 1457 -1387
1100 -3085 1774 -4830 1918 -366 30 -910 38 -1250 19z m95 -2450 c286 -46 504
-212 596 -455 134 -356 35 -865 -284 -1459 -401 -748 -1100 -1516 -1827 -2005
-318 -215 -738 -420 -1035 -506 -52 -15 -100 -31 -106 -36 -6 -5 -15 -45 -18
-91 -46 -545 -266 -1403 -512 -2002 -76 -184 -237 -506 -314 -625 l-61 -95 68
-63 c179 -166 402 -281 606 -313 118 -18 319 -7 443 25 415 106 833 374 1447
929 123 111 151 125 223 111 49 -9 109 -69 118 -118 15 -80 3 -101 -143 -250
-995 -1013 -1895 -1328 -2603 -910 -105 63 -167 112 -288 230 l-85 83 -110
-121 c-326 -360 -677 -596 -1019 -685 -138 -35 -352 -43 -476 -18 -204 41
-354 121 -501 265 -128 127 -214 259 -271 420 -28 79 -35 262 -14 354 91 387
510 698 1033 767 129 17 389 6 515 -20 241 -52 473 -160 680 -318 31 -24 58
-43 61 -43 9 0 84 131 152 265 206 407 416 1002 580 1640 63 245 120 503 114
510 -3 2 -36 -1 -74 -7 -100 -15 -482 -15 -595 0 -288 39 -540 114 -780 233
-250 124 -416 244 -600 435 -599 620 -696 1477 -253 2229 98 165 260 373 382
488 74 69 110 84 177 71 49 -9 109 -69 118 -118 13 -68 -2 -101 -83 -194 -178
-201 -304 -395 -381 -588 -208 -523 -106 -1078 279 -1509 229 -257 587 -459
944 -534 168 -36 250 -44 437 -45 177 0 328 15 463 45 54 13 48 -4 76 195 133
918 507 1878 1018 2612 202 289 524 641 749 819 269 212 551 352 800 397 95
17 265 20 354 5z m5750 -4500 c286 -46 504 -212 596 -455 134 -356 35 -865
-284 -1459 -401 -748 -1100 -1516 -1827 -2005 -318 -215 -738 -420 -1035 -506
-52 -15 -100 -31 -106 -36 -6 -5 -15 -45 -18 -91 -46 -545 -266 -1403 -512
-2002 -76 -184 -237 -506 -314 -625 l-61 -95 68 -63 c179 -166 402 -281 606
-313 118 -18 319 -7 443 25 415 106 833 374 1447 929 123 111 151 125 223 111
49 -9 109 -69 118 -118 15 -80 3 -101 -143 -250 -995 -1013 -1895 -1328 -2603
-910 -105 63 -167 112 -288 230 l-85 83 -110 -121 c-326 -360 -677 -596 -1019
-685 -138 -35 -352 -43 -476 -18 -204 41 -354 121 -501 265 -128 127 -214 259
-271 420 -28 79 -35 262 -14 354 91 387 510 698 1033 767 129 17 389 6 515
-20 241 -52 473 -160 680 -318 31 -24 58 -43 61 -43 9 0 84 131 152 265 206
407 416 1002 580 1640 63 245 120 503 114 510 -3 2 -36 -1 -74 -7 -100 -15
-482 -15 -595 0 -288 39 -540 114 -780 233 -250 124 -416 244 -600 435 -599
620 -696 1477 -253 2229 98 165 260 373 382 488 74 69 110 84 177 71 48 -9
111 -71 120 -118 12 -68 -2 -102 -85 -194 -449 -502 -590 -1034 -414 -1567
104 -315 322 -595 622 -797 231 -155 490 -251 806 -299 181 -28 534 -12 728
32 54 13 48 -4 76 195 133 918 507 1878 1018 2612 202 289 524 641 749 819
269 212 551 352 800 397 95 17 265 20 354 5z"/>
<path d="M8325 15185 c-546 -125 -1172 -746 -1660 -1645 -238 -438 -447 -986
-570 -1495 -34 -142 -85 -398 -80 -403 16 -16 332 137 540 261 1006 601 2027
1816 2272 2703 23 86 27 118 27 244 1 131 -1 149 -21 186 -54 102 -168 154
-343 160 -65 2 -128 -2 -165 -11z"/>
<path d="M3502 8595 c-282 -51 -494 -185 -593 -375 -20 -38 -24 -60 -24 -140
0 -79 4 -102 22 -135 95 -173 242 -261 453 -272 266 -14 553 109 870 372 101
83 290 264 290 276 0 14 -157 113 -251 159 -102 50 -244 94 -363 115 -107 18
-303 18 -404 0z"/>
<path d="M14075 10685 c-546 -125 -1172 -746 -1660 -1645 -238 -438 -447 -986
-570 -1495 -34 -142 -85 -398 -80 -403 16 -16 332 137 540 261 1006 601 2027
1816 2272 2703 23 86 27 118 27 244 1 131 -1 149 -21 186 -54 102 -168 154
-343 160 -65 2 -128 -2 -165 -11z"/>
<path d="M9252 4095 c-282 -51 -494 -185 -593 -375 -20 -38 -24 -60 -24 -140
0 -79 4 -102 22 -135 95 -173 242 -261 453 -272 266 -14 553 109 870 372 101
83 290 264 290 276 0 14 -157 113 -251 159 -102 50 -244 94 -363 115 -107 18
-303 18 -404 0z"/>
</g>
</svg>
